<svg version="1.1" id="Layer_1" xmlns="http://www.w3.org/2000/svg" xmlns:xlink="http://www.w3.org/1999/xlink" x="0px" y="0px"
	 width="100%" viewBox="0 0 215 332" enable-background="new 0 0 215 332" xml:space="preserve">
<path fill="#FFFEFE" opacity="1.000000" stroke="none" 
	d="
M216.000000,134.000000 
	C216.000000,200.636429 216.000000,266.772858 216.000000,332.954651 
	C144.396362,332.954651 72.792686,332.954651 1.094507,332.954651 
	C1.094507,222.446991 1.094507,111.893883 1.094507,1.170387 
	C72.666344,1.170387 144.333130,1.170387 216.000000,1.170387 
	C216.000000,45.207146 216.000000,89.353577 216.000000,134.000000 
M112.233421,21.834398 
	C99.358543,35.047001 94.182076,51.129745 95.024818,70.169189 
	C82.355957,58.860096 68.621361,52.609379 51.879162,52.931217 
	C53.006927,70.285431 59.364006,84.540176 71.783020,95.714500 
	C83.416374,106.181900 97.034653,112.041534 113.937439,111.424019 
	C147.907227,111.559746 173.782654,81.982269 173.343018,52.866806 
	C157.172760,52.627846 143.511658,58.776814 131.294235,69.539864 
	C130.823944,63.879467 130.789917,58.899120 129.934372,54.064137 
	C127.721764,41.559608 122.862106,30.330276 112.233421,21.834398 
M196.300003,217.859787 
	C202.413681,196.242004 204.826294,174.133743 204.801544,151.740570 
	C204.788330,139.779907 198.348465,130.964233 187.155365,127.221970 
	C168.116852,120.856697 148.516449,117.334259 128.499832,116.157372 
	C118.575829,115.573898 112.844337,121.104988 112.841118,131.067505 
	C112.823479,185.541550 112.822273,240.015579 112.841194,294.489624 
	C112.845085,305.695129 121.112556,311.105591 131.393509,306.599365 
	C142.357986,301.793457 151.913849,294.901733 160.080414,286.194397 
	C178.145737,266.932922 189.015381,243.787308 196.300003,217.859787 
M21.127234,163.423859 
	C23.098248,178.576172 24.081053,193.938858 27.252279,208.835663 
	C33.286152,237.179718 44.650177,263.263062 64.509094,284.990173 
	C73.033081,294.316040 82.925690,301.835968 94.718475,306.589294 
	C101.388420,309.277740 105.940536,306.130066 105.993156,298.982849 
	C106.040977,292.486115 105.760445,285.976898 106.077995,279.495392 
	C106.345428,274.036957 104.403114,269.906433 100.487587,266.262665 
	C90.880882,257.322662 83.537979,246.646942 77.371193,235.137527 
	C74.850128,230.432343 75.607132,227.520020 80.553230,225.541611 
	C86.854675,223.021027 93.367561,220.969788 99.901802,219.111908 
	C104.065536,217.927994 106.096001,215.692276 106.029015,211.339294 
	C105.929054,204.843781 106.003838,198.345596 106.003166,191.848541 
	C106.002213,182.645416 104.013802,180.723312 94.898079,182.624451 
	C83.705345,184.958755 72.635933,187.884338 60.952366,190.688934 
	C60.000618,185.289780 58.787731,179.464371 57.986038,173.582886 
	C57.070950,166.869476 58.805828,163.673752 65.316399,162.079224 
	C76.418694,159.360092 87.652977,157.126465 98.905647,155.098648 
	C104.061737,154.169464 105.959282,152.744415 105.991440,147.502609 
	C106.037422,140.006302 106.051888,132.509079 105.987541,125.013023 
	C105.936981,119.123833 102.935097,116.128555 96.993050,116.202065 
	C93.675133,116.243103 90.297401,116.393341 87.058548,117.048065 
	C70.788651,120.336914 54.410774,123.249046 38.359283,127.407036 
	C27.143801,130.312286 21.070608,139.895569 21.001030,151.454361 
	C20.978971,155.119171 21.007193,158.784271 21.127234,163.423859 
z"/>
<path fill="#EC2026" opacity="1.000000" stroke="none" 
	d="
M196.200134,218.252960 
	C189.015381,243.787308 178.145737,266.932922 160.080414,286.194397 
	C151.913849,294.901733 142.357986,301.793457 131.393509,306.599365 
	C121.112556,311.105591 112.845085,305.695129 112.841194,294.489624 
	C112.822273,240.015579 112.823479,185.541550 112.841118,131.067505 
	C112.844337,121.104988 118.575829,115.573898 128.499832,116.157372 
	C148.516449,117.334259 168.116852,120.856697 187.155365,127.221970 
	C198.348465,130.964233 204.788330,139.779907 204.801544,151.740570 
	C204.826294,174.133743 202.413681,196.242004 196.200134,218.252960 
M160.729370,182.806824 
	C161.711716,182.977173 162.706573,183.095062 163.674408,183.326202 
	C171.179352,185.118408 173.450729,183.550690 174.104568,175.952057 
	C174.474854,171.648529 174.867584,167.336563 174.966171,163.021896 
	C175.298645,148.470917 172.997772,145.850754 158.392624,143.715118 
	C153.463364,142.994339 151.212845,144.718887 150.954758,149.714783 
	C150.517487,158.179642 150.292709,166.655701 149.832245,175.119080 
	C149.605637,179.284012 151.611404,181.263412 155.498093,181.829468 
	C156.974808,182.044540 158.437775,182.353958 160.729370,182.806824 
M154.438690,219.064804 
	C147.338623,217.957306 146.723114,218.431976 146.171280,225.548431 
	C145.361374,235.993118 144.557358,246.438309 143.776596,256.885193 
	C143.687805,258.073120 143.764572,259.273376 143.764572,261.811432 
	C152.466660,251.693039 157.213806,241.173660 160.812149,230.062881 
	C163.408401,222.046219 163.336136,222.022812 154.438690,219.064804 
M184.238190,208.706940 
	C188.409439,205.849854 188.643707,202.367386 186.150757,198.193069 
	C181.560547,201.756287 180.967316,204.304199 184.238190,208.706940 
M161.385117,277.845856 
	C166.654739,275.089264 167.833267,272.500153 165.565445,267.791656 
	C161.650421,270.030579 159.447266,272.882996 161.385117,277.845856 
M154.227600,265.477417 
	C154.454956,263.833618 154.682297,262.189819 154.959961,260.182190 
	C148.679901,262.407990 147.306808,264.869049 149.319473,270.586823 
	C151.026245,268.947083 152.468033,267.561890 154.227600,265.477417 
M175.883667,195.282562 
	C177.525513,192.298782 177.275085,189.687912 173.342072,186.494400 
	C172.534119,189.970535 171.227478,192.739761 171.465332,195.369293 
	C171.704407,198.012527 173.642731,199.299881 175.883667,195.282562 
M182.003891,170.625488 
	C178.917923,173.710175 177.675293,176.952682 180.880310,180.817703 
	C185.256454,177.269547 185.781876,173.682236 182.003891,170.625488 
M158.010422,255.384888 
	C158.142197,258.148193 159.526688,258.704590 161.427307,256.918884 
	C163.996765,254.504715 164.804626,251.545471 163.342621,248.325714 
	C162.764023,248.046875 162.185425,247.768021 161.606842,247.489182 
	C160.407364,249.857910 159.207886,252.226654 158.010422,255.384888 
M171.148727,246.038177 
	C171.712585,246.967758 172.276459,247.897339 172.956497,249.018433 
	C177.341675,245.842407 177.957901,242.446091 174.242203,236.948410 
	C172.918076,240.415344 171.986176,242.855286 171.148727,246.038177 
M140.965637,264.842133 
	C140.512863,263.742706 140.060089,262.643280 139.550537,261.405975 
	C134.477921,265.822510 133.992188,267.909454 137.330643,273.256989 
	C138.716965,270.339142 139.847153,267.960388 140.965637,264.842133 
M130.764694,130.297836 
	C129.870255,130.477722 128.442749,130.371231 128.167465,130.883698 
	C126.310417,134.340698 126.366081,137.644562 129.668213,140.702057 
	C132.412262,137.537735 132.666519,134.339111 130.764694,130.297836 
M122.986816,152.089996 
	C122.508644,149.846359 122.030464,147.602707 121.552292,145.359055 
	C117.220589,149.348434 117.064598,152.934509 120.763947,157.038498 
	C121.607460,155.391144 122.255440,154.125641 122.986816,152.089996 
M191.966400,184.626816 
	C191.966400,186.974487 191.966400,189.322144 191.966400,192.693298 
	C197.415543,188.033188 197.868713,185.375961 194.690414,181.017380 
	C193.799911,182.027237 192.973663,182.964218 191.966400,184.626816 
M153.124374,210.076935 
	C153.124374,211.914749 153.124374,213.752563 153.124374,216.054382 
	C159.442642,212.206131 160.015274,210.150009 156.469147,204.936615 
	C155.368561,206.502792 154.375885,207.915390 153.124374,210.076935 
M131.607056,206.420242 
	C129.550049,203.303635 127.884789,203.885925 127.186676,207.182510 
	C126.563957,210.123062 126.906075,213.030670 131.074142,215.419266 
	C131.395081,212.131607 131.638107,209.642014 131.607056,206.420242 
M133.112061,195.857864 
	C134.201218,198.339401 135.644669,198.362869 136.881485,196.124222 
	C138.560684,193.084869 138.685669,190.046295 134.583405,187.154510 
	C134.061066,189.790237 133.538712,192.425949 133.112061,195.857864 
M160.844666,194.049683 
	C160.309662,191.740860 159.774658,189.432037 159.239639,187.123215 
	C158.400864,187.206863 157.562088,187.290527 156.723328,187.374176 
	C156.567902,190.769043 156.412460,194.163910 156.257034,197.558777 
	C156.923874,197.716492 157.590714,197.874207 158.257553,198.031921 
	C159.031754,196.947098 159.805954,195.862274 160.844666,194.049683 
M120.534782,175.448486 
	C124.853722,171.858917 125.113060,168.835159 121.467590,164.572372 
	C118.460487,168.291138 118.248337,169.820923 120.534782,175.448486 
M120.487312,232.429398 
	C124.096466,228.152206 124.073540,225.613800 120.231956,221.449219 
	C117.239281,224.972458 117.143188,228.486603 120.487312,232.429398 
M118.991074,297.977814 
	C120.011589,297.949585 121.696915,298.287567 121.946396,297.834625 
	C123.780571,294.504761 123.452843,291.314728 120.578804,288.293427 
	C117.611809,290.990204 117.438339,293.990356 118.991074,297.977814 
M178.359299,137.617432 
	C179.011353,138.612640 179.663391,139.607849 180.642548,141.102310 
	C183.568161,136.698792 183.998596,133.123001 179.614700,128.136520 
	C178.975998,131.871658 178.546631,134.382584 178.359299,137.617432 
M179.340958,157.623459 
	C180.123886,157.605743 181.404587,157.880066 181.612778,157.525162 
	C183.700668,153.966248 183.766495,150.551102 180.424957,147.326828 
	C177.513885,150.399368 177.354965,153.558395 179.340958,157.623459 
M149.051544,287.298065 
	C152.909195,285.528442 155.220245,282.886871 154.652176,277.458923 
	C149.929337,279.804596 146.904037,282.041748 149.051544,287.298065 
M165.013474,231.922043 
	C165.013474,233.778778 165.013474,235.635513 165.013474,237.971054 
	C170.591293,234.645203 171.383255,230.731888 167.433441,226.921371 
	C166.606552,228.414169 165.857513,229.766388 165.013474,231.922043 
M126.855797,277.687286 
	C125.649994,280.431580 123.620819,283.232788 128.569016,286.775482 
	C129.410110,283.157623 130.633987,280.333893 130.550415,277.549408 
	C130.470734,274.895630 128.652588,275.588562 126.855797,277.687286 
M118.020180,266.957245 
	C118.344185,268.942993 118.668190,270.928741 118.992195,272.914490 
	C119.848038,272.896240 120.703873,272.877960 121.559708,272.859711 
	C122.081032,269.539490 122.602364,266.219299 123.123688,262.899109 
	C122.511322,262.683624 121.898956,262.468170 121.286591,262.252716 
	C120.226685,263.563995 119.166771,264.875305 118.020180,266.957245 
M132.132248,241.908203 
	C133.326035,244.477356 135.075943,244.268494 135.845703,241.994995 
	C136.747223,239.332291 136.745773,236.363892 137.136017,233.528091 
	C136.291489,233.346054 135.446976,233.164001 134.602448,232.981964 
	C133.744308,235.698776 132.886169,238.415604 132.132248,241.908203 
M121.007164,245.570328 
	C121.364609,247.184784 121.722054,248.799240 122.210106,251.003601 
	C126.429764,247.319626 126.819260,243.732819 124.484192,238.147141 
	C122.967690,241.070053 121.999779,242.935608 121.007164,245.570328 
M170.995941,262.282684 
	C171.831085,262.849976 173.173950,264.076172 173.423706,263.883728 
	C176.275406,261.686432 178.339615,259.096497 176.096619,255.027115 
	C172.419067,255.848206 171.391220,258.424469 170.995941,262.282684 
M171.305893,133.005173 
	C166.529373,134.495834 165.756439,138.690613 169.536316,143.558182 
	C172.860733,140.766357 172.099930,137.148422 171.305893,133.005173 
M142.103638,179.121399 
	C142.406281,181.667953 142.708908,184.214493 143.122284,187.692841 
	C147.214050,183.476562 147.733185,180.849869 146.005447,177.990173 
	C144.455490,175.424728 143.337799,176.119797 142.103638,179.121399 
M121.982475,187.651505 
	C122.380524,189.700500 122.778580,191.749496 123.326981,194.572433 
	C127.735168,189.448318 127.815048,187.575394 124.101471,182.483841 
	C123.288383,184.181519 122.651604,185.511063 121.982475,187.651505 
M130.537109,296.003815 
	C129.617325,297.705750 128.697540,299.407654 127.551376,301.528442 
	C133.615540,301.577911 136.079132,298.868530 135.115234,293.820190 
	C133.716049,294.412415 132.417770,294.961914 130.537109,296.003815 
M137.880188,281.675751 
	C137.604156,283.298859 137.328125,284.921936 136.995163,286.879852 
	C142.537323,285.362854 144.082932,282.998352 143.076675,277.525818 
	C141.324631,278.860687 139.856689,279.979126 137.880188,281.675751 
M195.853241,148.180420 
	C197.105148,144.855316 196.572540,141.947693 193.201248,139.486603 
	C192.401062,142.580170 192.036652,145.709183 192.519211,148.701630 
	C192.888809,150.993607 194.405914,151.283432 195.853241,148.180420 
M184.002289,233.545792 
	C183.207169,236.092667 182.412033,238.639526 181.616898,241.186401 
	C182.400085,241.515686 183.183273,241.844955 183.966461,242.174240 
	C185.303802,239.644958 187.184067,237.244385 187.822906,234.549530 
	C188.438721,231.951782 186.644501,231.483368 184.002289,233.545792 
M166.278687,207.246933 
	C165.757935,209.939423 165.237183,212.631912 164.558182,216.142548 
	C170.073837,214.220749 170.367844,210.898788 169.792343,207.342041 
	C169.733459,206.978134 167.845032,206.910263 166.278687,207.246933 
M180.007599,221.502350 
	C179.555450,220.388412 179.103287,219.274475 178.651138,218.160538 
	C177.694107,218.936523 176.145386,219.559723 175.897705,220.518875 
	C175.299988,222.833557 175.310303,225.305252 175.075439,227.713623 
	C175.808716,227.909988 176.541992,228.106339 177.275253,228.302704 
	C178.184555,226.309311 179.093857,224.315903 180.007599,221.502350 
M148.026871,136.168427 
	C148.560104,137.379105 149.093338,138.589783 149.626572,139.800461 
	C150.299637,139.720947 150.972717,139.641434 151.645798,139.561920 
	C151.800659,136.279266 151.955521,132.996628 152.110382,129.713989 
	C151.308624,129.587097 150.506866,129.460205 149.705093,129.333298 
	C149.138214,131.352005 148.571320,133.370712 148.026871,136.168427 
M137.013626,149.013474 
	C137.556534,149.977310 138.099457,150.941132 138.943741,152.439987 
	C141.491837,148.293091 142.007294,145.202347 137.839005,141.231216 
	C137.464478,144.292297 137.224609,146.252777 137.013626,149.013474 
M120.813606,131.127045 
	C120.452133,129.149475 120.090660,127.171898 119.729187,125.194328 
	C119.059425,125.247231 118.389664,125.300125 117.719902,125.353027 
	C117.475334,127.300774 117.097099,129.245270 117.049675,131.197815 
	C117.029716,132.019577 117.708458,132.858337 118.069580,133.689362 
	C118.886429,133.077591 119.703278,132.465820 120.813606,131.127045 
M138.783005,123.563873 
	C137.554810,126.330727 137.508087,128.812424 140.323700,130.810562 
	C143.140854,126.226830 142.678986,123.549934 138.783005,123.563873 
M192.135284,163.031082 
	C192.421051,164.952881 192.706833,166.874680 192.992599,168.796478 
	C193.675354,168.743286 194.358093,168.690094 195.040833,168.636917 
	C195.342468,166.647141 195.813400,164.661133 195.857559,162.665665 
	C195.873901,161.927658 194.886581,161.167450 194.356995,160.417358 
	C193.703156,161.046936 193.049316,161.676514 192.135284,163.031082 
M159.462631,132.708679 
	C160.416214,132.766846 162.190140,132.952652 162.203842,132.864578 
	C162.580475,130.443939 162.777863,127.995430 163.005112,125.551552 
	C162.284775,125.408272 161.564453,125.264999 160.844131,125.121719 
	C160.279831,127.417595 159.715530,129.713470 159.462631,132.708679 
M140.995728,220.340836 
	C140.595200,218.960892 140.194672,217.580948 139.794144,216.201004 
	C139.132523,216.252304 138.470886,216.303619 137.809250,216.354919 
	C137.626160,219.010727 137.443069,221.666550 137.259964,224.322372 
	C137.836578,224.449646 138.413208,224.576920 138.989822,224.704178 
	C139.652161,223.503586 140.314514,222.302994 140.995728,220.340836 
M133.052490,160.305725 
	C133.052490,158.033813 133.052490,155.761887 133.052490,153.489975 
	C132.321930,153.472763 131.591370,153.455551 130.860809,153.438339 
	C130.597351,155.864044 130.333878,158.289749 130.070419,160.715454 
	C131.006500,160.813797 131.942581,160.912155 133.052490,160.305725 
M143.023926,200.870773 
	C143.212494,202.723038 143.401047,204.575317 143.589615,206.427582 
	C144.162796,206.507935 144.735977,206.588287 145.309158,206.668640 
	C145.849670,204.637482 147.024063,202.526276 146.780106,200.594147 
	C146.426132,197.790634 144.790405,197.154846 143.023926,200.870773 
M120.018059,205.566849 
	C119.784409,204.213104 119.550766,202.859360 119.176308,200.689758 
	C115.962646,204.044296 114.819092,206.628601 118.289375,210.590988 
	C119.037437,208.751602 119.524673,207.553574 120.018059,205.566849 
M144.663864,158.607224 
	C141.296600,161.187531 141.407364,163.845963 143.522110,166.549408 
	C144.247986,166.545013 144.973846,166.540619 145.699722,166.536224 
	C145.562225,164.016953 145.424728,161.497681 144.663864,158.607224 
M190.501984,221.802994 
	C191.050888,219.421936 191.599792,217.040894 192.148697,214.659836 
	C187.202393,218.065826 186.929169,220.564835 190.501984,221.802994 
M133.973770,257.194122 
	C133.907028,255.701981 133.840271,254.209824 133.773529,252.717682 
	C133.210892,252.626099 132.648254,252.534515 132.085617,252.442932 
	C131.250183,254.997086 130.414749,257.551239 129.579300,260.105408 
	C130.132843,260.385773 130.686386,260.666138 131.239929,260.946503 
	C132.111832,259.950439 132.983719,258.954376 133.973770,257.194122 
z"/>
<path fill="#EC2026" opacity="1.000000" stroke="none" 
	d="
M21.069818,162.936554 
	C21.007193,158.784271 20.978971,155.119171 21.001030,151.454361 
	C21.070608,139.895569 27.143801,130.312286 38.359283,127.407036 
	C54.410774,123.249046 70.788651,120.336914 87.058548,117.048065 
	C90.297401,116.393341 93.675133,116.243103 96.993050,116.202065 
	C102.935097,116.128555 105.936981,119.123833 105.987541,125.013023 
	C106.051888,132.509079 106.037422,140.006302 105.991440,147.502609 
	C105.959282,152.744415 104.061737,154.169464 98.905647,155.098648 
	C87.652977,157.126465 76.418694,159.360092 65.316399,162.079224 
	C58.805828,163.673752 57.070950,166.869476 57.986038,173.582886 
	C58.787731,179.464371 60.000618,185.289780 60.952366,190.688934 
	C72.635933,187.884338 83.705345,184.958755 94.898079,182.624451 
	C104.013802,180.723312 106.002213,182.645416 106.003166,191.848541 
	C106.003838,198.345596 105.929054,204.843781 106.029015,211.339294 
	C106.096001,215.692276 104.065536,217.927994 99.901802,219.111908 
	C93.367561,220.969788 86.854675,223.021027 80.553230,225.541611 
	C75.607132,227.520020 74.850128,230.432343 77.371193,235.137527 
	C83.537979,246.646942 90.880882,257.322662 100.487587,266.262665 
	C104.403114,269.906433 106.345428,274.036957 106.077995,279.495392 
	C105.760445,285.976898 106.040977,292.486115 105.993156,298.982849 
	C105.940536,306.130066 101.388420,309.277740 94.718475,306.589294 
	C82.925690,301.835968 73.033081,294.316040 64.509094,284.990173 
	C44.650177,263.263062 33.286152,237.179718 27.252279,208.835663 
	C24.081053,193.938858 23.098248,178.576172 21.069818,162.936554 
M36.854713,185.027161 
	C35.780514,183.590759 34.706318,182.154358 33.632118,180.717957 
	C31.919004,185.325089 30.973019,189.195297 36.182850,192.462784 
	C36.502693,189.755020 36.734447,187.793015 36.854713,185.027161 
M58.961601,212.350082 
	C60.177803,213.414429 61.394005,214.478775 62.610214,215.543121 
	C62.925846,213.750504 63.780415,211.837433 63.413895,210.197250 
	C63.001919,208.353638 61.487797,206.756317 60.453144,205.051849 
	C59.888691,205.180420 59.324242,205.309006 58.759789,205.437576 
	C58.759789,207.497269 58.759789,209.556976 58.961601,212.350082 
M36.880585,146.904419 
	C36.440559,144.388657 36.000534,141.872894 35.405041,138.468246 
	C30.895826,143.292969 30.999516,146.597031 34.886765,150.562042 
	C35.496586,149.538513 36.067219,148.580750 36.880585,146.904419 
M69.870544,146.927704 
	C70.247658,143.534195 69.917137,140.456375 65.012665,137.804810 
	C65.394974,141.903305 65.246307,144.998169 66.072708,147.806061 
	C66.847534,150.438705 68.518822,150.164291 69.870544,146.927704 
M57.496098,260.973083 
	C56.017399,258.801727 54.538704,256.630341 53.060005,254.458984 
	C52.232624,254.946671 51.405243,255.434341 50.577862,255.922012 
	C51.731216,258.456299 52.428844,261.373169 54.153580,263.427795 
	C56.296928,265.981049 57.817738,264.873840 57.496098,260.973083 
M48.737545,224.414520 
	C49.696404,225.607422 50.655266,226.800323 51.737373,228.146576 
	C54.854603,223.396576 53.942715,220.417862 48.404846,217.356934 
	C48.404846,219.709808 48.404846,221.720093 48.737545,224.414520 
M45.537457,235.047928 
	C44.383457,234.083359 43.265453,233.063110 42.011826,232.252609 
	C41.903458,232.182526 40.278030,233.674942 40.410702,234.142914 
	C41.290794,237.247345 41.475735,241.087952 47.081543,241.493164 
	C46.613697,239.232513 46.250088,237.475510 45.537457,235.047928 
M70.026947,196.856277 
	C70.526497,199.103699 71.026039,201.351120 71.661987,204.212250 
	C76.069221,199.359146 76.089508,196.852798 72.153206,192.160599 
	C71.414497,193.589142 70.766045,194.843109 70.026947,196.856277 
M61.233948,226.300125 
	C59.214916,229.875000 59.322639,233.100174 62.382328,236.284698 
	C66.217163,231.486313 65.870125,228.053589 61.233948,226.300125 
M92.209160,296.139893 
	C94.025902,299.222687 95.693108,302.531860 100.308067,301.708923 
	C98.912254,294.823944 96.383522,292.937531 92.209160,296.139893 
M88.010452,263.098816 
	C88.036728,266.639221 87.312691,270.571503 92.802361,271.426300 
	C92.718620,268.341217 92.038605,265.481964 91.005585,262.756531 
	C90.837036,262.311859 89.109375,262.458160 88.010452,263.098816 
M90.896568,281.806854 
	C89.387421,280.407501 87.878265,279.008179 85.851929,277.129272 
	C84.614685,284.007843 85.909889,285.861633 91.974312,286.683777 
	C91.693466,285.152100 91.450371,283.826294 90.896568,281.806854 
M46.488438,157.726242 
	C47.382793,157.659409 48.940479,157.836624 49.068783,157.487915 
	C50.336853,154.041473 51.168232,150.536957 47.827583,147.467773 
	C44.808399,150.405701 44.553280,153.577240 46.488438,157.726242 
M45.524639,170.363235 
	C42.551140,174.434479 43.683994,177.738464 47.912811,181.439346 
	C49.342499,176.888489 50.017483,173.360291 45.524639,170.363235 
M80.115753,286.733978 
	C81.195717,282.182953 79.027855,279.646240 75.054367,277.831726 
	C73.400154,283.130554 74.539406,285.315521 80.115753,286.733978 
M97.976883,279.482544 
	C98.741096,281.680511 99.505310,283.878479 100.587204,286.990143 
	C104.158264,281.270782 103.322121,278.099884 98.456795,275.355408 
	C98.284157,276.549408 98.130501,277.612213 97.976883,279.482544 
M101.013115,135.289780 
	C100.600250,133.246643 100.187386,131.203506 99.621956,128.405380 
	C94.949387,133.547638 94.971016,135.677963 99.306816,140.084290 
	C99.934059,138.594879 100.462601,137.339844 101.013115,135.289780 
M99.511543,204.387115 
	C95.088020,206.995758 94.795265,210.077835 98.703682,214.614197 
	C102.081985,211.730530 101.469322,208.337585 99.511543,204.387115 
M49.904865,132.162430 
	C49.291580,131.148422 48.678295,130.134415 47.921978,128.883911 
	C44.028809,134.584900 44.149723,136.436417 49.243706,140.442581 
	C49.539627,137.491318 49.766804,135.225677 49.904865,132.162430 
M56.975231,195.091995 
	C57.215401,191.844101 56.980930,188.843414 51.806820,187.098770 
	C52.285736,190.587250 52.254734,193.471191 53.157227,196.025299 
	C53.992386,198.388870 55.724556,198.414307 56.975231,195.091995 
M74.139481,265.022491 
	C75.572830,266.760406 77.006180,268.498352 78.982468,270.894592 
	C80.507217,264.291870 79.920349,263.145752 74.335724,260.336700 
	C74.225533,261.745056 74.127426,262.998932 74.139481,265.022491 
M67.708611,249.175262 
	C65.492630,246.583191 64.081619,247.941513 64.261391,250.386337 
	C64.492981,253.535751 65.480652,256.766785 70.757355,257.906097 
	C69.749557,254.642090 68.986053,252.169296 67.708611,249.175262 
M55.155426,239.692703 
	C54.173183,239.743896 52.362892,239.666489 52.331989,239.865448 
	C51.806587,243.248245 51.402885,246.700043 55.286209,248.926605 
	C58.147312,245.949005 57.109127,243.122940 55.155426,239.692703 
M41.288521,199.566467 
	C40.575340,203.476547 40.608551,207.039337 45.329414,208.709030 
	C46.742271,201.797028 46.175320,200.348923 41.288521,199.566467 
M72.978905,216.444748 
	C73.994209,218.663986 75.009514,220.883240 76.024818,223.102478 
	C76.613823,222.825684 77.202835,222.548889 77.791840,222.272095 
	C78.222115,218.407745 78.462479,214.609909 73.504478,212.018372 
	C73.284607,213.535156 73.131302,214.592728 72.978905,216.444748 
M95.882477,193.552628 
	C95.003532,191.434555 94.124596,189.316483 93.245651,187.198395 
	C92.494217,187.380814 91.742775,187.563217 90.991333,187.745621 
	C91.350029,191.157990 91.708733,194.570343 92.067436,197.982712 
	C92.729027,198.009888 93.390610,198.037064 94.052193,198.064240 
	C94.626503,196.811066 95.200813,195.557907 95.882477,193.552628 
M67.870758,276.811707 
	C68.609886,272.401550 66.553589,269.858887 62.365421,268.216919 
	C61.317322,273.228607 62.875248,276.217072 67.870758,276.811707 
M89.527786,151.452255 
	C93.143669,147.908981 93.082359,145.634766 89.175003,142.545868 
	C86.459694,145.358246 86.377296,148.214676 89.527786,151.452255 
M79.230942,139.043213 
	C80.351280,135.614349 81.199081,132.237778 77.225143,129.180908 
	C76.026474,133.176300 74.182617,136.658386 79.230942,139.043213 
M90.760674,119.353088 
	C87.577026,121.368332 86.282875,123.899048 88.084747,128.387177 
	C91.049454,125.347862 92.929413,123.068153 90.760674,119.353088 
M83.036621,204.807129 
	C83.605446,206.585419 84.174278,208.363708 84.743103,210.142014 
	C85.500893,209.954498 86.258690,209.766998 87.016479,209.579483 
	C86.673676,206.843338 86.330864,204.107178 85.988060,201.371033 
	C85.485985,201.399811 84.983917,201.428604 84.481842,201.457382 
	C84.032417,202.320023 83.582993,203.182663 83.036621,204.807129 
M58.663185,152.463821 
	C57.600834,155.403824 57.191555,158.207581 60.402016,160.624390 
	C62.432133,157.305145 63.224964,154.483826 58.663185,152.463821 
M40.488472,218.022263 
	C39.378326,216.700012 38.268185,215.377762 37.158039,214.055511 
	C36.590782,214.405380 36.023525,214.755264 35.456268,215.105133 
	C36.488739,217.625641 37.521210,220.146149 38.553680,222.666641 
	C39.050243,222.552979 39.546806,222.439316 40.043369,222.325653 
	C40.285828,221.112335 40.528286,219.899002 40.488472,218.022263 
M74.541214,238.146652 
	C73.773277,237.144714 73.005348,236.142776 72.237411,235.140839 
	C71.753021,235.351105 71.268631,235.561371 70.784233,235.771637 
	C71.156357,238.430893 71.528481,241.090134 71.900597,243.749390 
	C72.523621,243.736832 73.146637,243.724289 73.769653,243.711746 
	C74.119766,242.096710 74.469879,240.481674 74.541214,238.146652 
M34.636234,168.404785 
	C36.985497,165.457657 36.702530,162.799744 34.154327,159.927048 
	C31.153193,163.091583 31.776869,165.670944 34.636234,168.404785 
M59.101715,130.144485 
	C59.716473,132.389694 60.331230,134.634903 60.945988,136.880112 
	C61.569595,136.748871 62.193203,136.617645 62.816811,136.486420 
	C62.816811,134.633362 63.162468,132.678345 62.659592,130.973633 
	C62.434532,130.210693 60.507565,129.949799 59.101715,130.144485 
M80.601715,250.128159 
	C77.461952,252.955078 80.341621,254.078613 81.701904,255.632111 
	C82.203384,255.483734 82.704857,255.335342 83.206337,255.186966 
	C82.579056,253.547302 81.951782,251.907623 80.601715,250.128159 
z"/>
<path fill="#5CAB48" opacity="1.000000" stroke="none" 
	d="
M113.037880,111.206596 
	C97.034653,112.041534 83.416374,106.181900 71.783020,95.714500 
	C59.364006,84.540176 53.006927,70.285431 51.879162,52.931217 
	C68.621361,52.609379 82.355957,58.860096 95.024818,70.169189 
	C94.182076,51.129745 99.358543,35.047001 112.594658,22.317982 
	C112.983223,52.269909 113.010551,81.738251 113.037880,111.206596 
z"/>
<path fill="#238D46" opacity="1.000000" stroke="none" 
	d="
M113.487656,111.315308 
	C113.010551,81.738251 112.983223,52.269909 112.944122,22.320610 
	C122.862106,30.330276 127.721764,41.559608 129.934372,54.064137 
	C130.789917,58.899120 130.823944,63.879467 131.294235,69.539864 
	C143.511658,58.776814 157.172760,52.627846 173.343018,52.866806 
	C173.782654,81.982269 147.907227,111.559746 113.487656,111.315308 
z"/>
<path fill="#FFFCFC" opacity="1.000000" stroke="none" 
	d="
M160.318176,182.713593 
	C158.437775,182.353958 156.974808,182.044540 155.498093,181.829468 
	C151.611404,181.263412 149.605637,179.284012 149.832245,175.119080 
	C150.292709,166.655701 150.517487,158.179642 150.954758,149.714783 
	C151.212845,144.718887 153.463364,142.994339 158.392624,143.715118 
	C172.997772,145.850754 175.298645,148.470917 174.966171,163.021896 
	C174.867584,167.336563 174.474854,171.648529 174.104568,175.952057 
	C173.450729,183.550690 171.179352,185.118408 163.674408,183.326202 
	C162.706573,183.095062 161.711716,182.977173 160.318176,182.713593 
z"/>
<path fill="#FFFAFA" opacity="1.000000" stroke="none" 
	d="
M154.822052,219.146088 
	C163.336136,222.022812 163.408401,222.046219 160.812149,230.062881 
	C157.213806,241.173660 152.466660,251.693039 143.764572,261.811432 
	C143.764572,259.273376 143.687805,258.073120 143.776596,256.885193 
	C144.557358,246.438309 145.361374,235.993118 146.171280,225.548431 
	C146.723114,218.431976 147.338623,217.957306 154.822052,219.146088 
z"/>
<path fill="#EF3D42" opacity="1.000000" stroke="none" 
	d="
M183.865265,208.672119 
	C180.967316,204.304199 181.560547,201.756287 186.150757,198.193069 
	C188.643707,202.367386 188.409439,205.849854 183.865265,208.672119 
z"/>
<path fill="#EF3D43" opacity="1.000000" stroke="none" 
	d="
M161.037994,277.723083 
	C159.447266,272.882996 161.650421,270.030579 165.565445,267.791656 
	C167.833267,272.500153 166.654739,275.089264 161.037994,277.723083 
z"/>
<path fill="#EF3D42" opacity="1.000000" stroke="none" 
	d="
M154.068710,265.827087 
	C152.468033,267.561890 151.026245,268.947083 149.319473,270.586823 
	C147.306808,264.869049 148.679901,262.407990 154.959961,260.182190 
	C154.682297,262.189819 154.454956,263.833618 154.068710,265.827087 
z"/>
<path fill="#EF3C41" opacity="1.000000" stroke="none" 
	d="
M175.707642,195.617432 
	C173.642731,199.299881 171.704407,198.012527 171.465332,195.369293 
	C171.227478,192.739761 172.534119,189.970535 173.342072,186.494400 
	C177.275085,189.687912 177.525513,192.298782 175.707642,195.617432 
z"/>
<path fill="#EF3D43" opacity="1.000000" stroke="none" 
	d="
M182.329376,170.474945 
	C185.781876,173.682236 185.256454,177.269547 180.880310,180.817703 
	C177.675293,176.952682 178.917923,173.710175 182.329376,170.474945 
z"/>
<path fill="#EF3E43" opacity="1.000000" stroke="none" 
	d="
M158.009415,254.990143 
	C159.207886,252.226654 160.407364,249.857910 161.606842,247.489182 
	C162.185425,247.768021 162.764023,248.046875 163.342621,248.325714 
	C164.804626,251.545471 163.996765,254.504715 161.427307,256.918884 
	C159.526688,258.704590 158.142197,258.148193 158.009415,254.990143 
z"/>
<path fill="#EF3D42" opacity="1.000000" stroke="none" 
	d="
M171.101501,245.666702 
	C171.986176,242.855286 172.918076,240.415344 174.242203,236.948410 
	C177.957901,242.446091 177.341675,245.842407 172.956497,249.018433 
	C172.276459,247.897339 171.712585,246.967758 171.101501,245.666702 
z"/>
<path fill="#EF3E43" opacity="1.000000" stroke="none" 
	d="
M140.971497,265.211914 
	C139.847153,267.960388 138.716965,270.339142 137.330643,273.256989 
	C133.992188,267.909454 134.477921,265.822510 139.550537,261.405975 
	C140.060089,262.643280 140.512863,263.742706 140.971497,265.211914 
z"/>
<path fill="#EF3E43" opacity="1.000000" stroke="none" 
	d="
M131.006348,130.582336 
	C132.666519,134.339111 132.412262,137.537735 129.668213,140.702057 
	C126.366081,137.644562 126.310417,134.340698 128.167465,130.883698 
	C128.442749,130.371231 129.870255,130.477722 131.006348,130.582336 
z"/>
<path fill="#EF3E43" opacity="1.000000" stroke="none" 
	d="
M122.945114,152.475067 
	C122.255440,154.125641 121.607460,155.391144 120.763947,157.038498 
	C117.064598,152.934509 117.220589,149.348434 121.552292,145.359055 
	C122.030464,147.602707 122.508644,149.846359 122.945114,152.475067 
z"/>
<path fill="#EF3D43" opacity="1.000000" stroke="none" 
	d="
M192.056915,184.264008 
	C192.973663,182.964218 193.799911,182.027237 194.690414,181.017380 
	C197.868713,185.375961 197.415543,188.033188 191.966400,192.693298 
	C191.966400,189.322144 191.966400,186.974487 192.056915,184.264008 
z"/>
<path fill="#EF3D42" opacity="1.000000" stroke="none" 
	d="
M153.253799,209.702454 
	C154.375885,207.915390 155.368561,206.502792 156.469147,204.936615 
	C160.015274,210.150009 159.442642,212.206131 153.124374,216.054382 
	C153.124374,213.752563 153.124374,211.914749 153.253799,209.702454 
z"/>
<path fill="#EF3E43" opacity="1.000000" stroke="none" 
	d="
M131.744095,206.786316 
	C131.638107,209.642014 131.395081,212.131607 131.074142,215.419266 
	C126.906075,213.030670 126.563957,210.123062 127.186676,207.182510 
	C127.884789,203.885925 129.550049,203.303635 131.744095,206.786316 
z"/>
<path fill="#EF3E43" opacity="1.000000" stroke="none" 
	d="
M133.064209,195.459778 
	C133.538712,192.425949 134.061066,189.790237 134.583405,187.154510 
	C138.685669,190.046295 138.560684,193.084869 136.881485,196.124222 
	C135.644669,198.362869 134.201218,198.339401 133.064209,195.459778 
z"/>
<path fill="#EF3D43" opacity="1.000000" stroke="none" 
	d="
M160.712402,194.413574 
	C159.805954,195.862274 159.031754,196.947098 158.257553,198.031921 
	C157.590714,197.874207 156.923874,197.716492 156.257034,197.558777 
	C156.412460,194.163910 156.567902,190.769043 156.723328,187.374176 
	C157.562088,187.290527 158.400864,187.206863 159.239639,187.123215 
	C159.774658,189.432037 160.309662,191.740860 160.712402,194.413574 
z"/>
<path fill="#EF3E43" opacity="1.000000" stroke="none" 
	d="
M120.283600,175.184814 
	C118.248337,169.820923 118.460487,168.291138 121.467590,164.572372 
	C125.113060,168.835159 124.853722,171.858917 120.283600,175.184814 
z"/>
<path fill="#EF3F44" opacity="1.000000" stroke="none" 
	d="
M120.159531,232.288849 
	C117.143188,228.486603 117.239281,224.972458 120.231956,221.449219 
	C124.073540,225.613800 124.096466,228.152206 120.159531,232.288849 
z"/>
<path fill="#EF3F44" opacity="1.000000" stroke="none" 
	d="
M118.840355,297.638428 
	C117.438339,293.990356 117.611809,290.990204 120.578804,288.293427 
	C123.452843,291.314728 123.780571,294.504761 121.946396,297.834625 
	C121.696915,298.287567 120.011589,297.949585 118.840355,297.638428 
z"/>
<path fill="#EF3E43" opacity="1.000000" stroke="none" 
	d="
M178.238281,137.255463 
	C178.546631,134.382584 178.975998,131.871658 179.614700,128.136520 
	C183.998596,133.123001 183.568161,136.698792 180.642548,141.102310 
	C179.663391,139.607849 179.011353,138.612640 178.238281,137.255463 
z"/>
<path fill="#EF3F44" opacity="1.000000" stroke="none" 
	d="
M179.160980,157.302109 
	C177.354965,153.558395 177.513885,150.399368 180.424957,147.326828 
	C183.766495,150.551102 183.700668,153.966248 181.612778,157.525162 
	C181.404587,157.880066 180.123886,157.605743 179.160980,157.302109 
z"/>
<path fill="#EF3F44" opacity="1.000000" stroke="none" 
	d="
M148.709564,287.242767 
	C146.904037,282.041748 149.929337,279.804596 154.652176,277.458923 
	C155.220245,282.886871 152.909195,285.528442 148.709564,287.242767 
z"/>
<path fill="#EF3E43" opacity="1.000000" stroke="none" 
	d="
M165.060974,231.520325 
	C165.857513,229.766388 166.606552,228.414169 167.433441,226.921371 
	C171.383255,230.731888 170.591293,234.645203 165.013474,237.971054 
	C165.013474,235.635513 165.013474,233.778778 165.060974,231.520325 
z"/>
<path fill="#EF3E43" opacity="1.000000" stroke="none" 
	d="
M127.094025,277.424133 
	C128.652588,275.588562 130.470734,274.895630 130.550415,277.549408 
	C130.633987,280.333893 129.410110,283.157623 128.569016,286.775482 
	C123.620819,283.232788 125.649994,280.431580 127.094025,277.424133 
z"/>
<path fill="#EF3E43" opacity="1.000000" stroke="none" 
	d="
M118.063522,266.571930 
	C119.166771,264.875305 120.226685,263.563995 121.286591,262.252716 
	C121.898956,262.468170 122.511322,262.683624 123.123688,262.899109 
	C122.602364,266.219299 122.081032,269.539490 121.559708,272.859711 
	C120.703873,272.877960 119.848038,272.896240 118.992195,272.914490 
	C118.668190,270.928741 118.344185,268.942993 118.063522,266.571930 
z"/>
<path fill="#EF3D42" opacity="1.000000" stroke="none" 
	d="
M132.080139,241.520325 
	C132.886169,238.415604 133.744308,235.698776 134.602448,232.981964 
	C135.446976,233.164001 136.291489,233.346054 137.136017,233.528091 
	C136.745773,236.363892 136.747223,239.332291 135.845703,241.994995 
	C135.075943,244.268494 133.326035,244.477356 132.080139,241.520325 
z"/>
<path fill="#EF3F44" opacity="1.000000" stroke="none" 
	d="
M121.019516,245.185730 
	C121.999779,242.935608 122.967690,241.070053 124.484192,238.147141 
	C126.819260,243.732819 126.429764,247.319626 122.210106,251.003601 
	C121.722054,248.799240 121.364609,247.184784 121.019516,245.185730 
z"/>
<path fill="#EF3E43" opacity="1.000000" stroke="none" 
	d="
M170.997421,261.895905 
	C171.391220,258.424469 172.419067,255.848206 176.096619,255.027115 
	C178.339615,259.096497 176.275406,261.686432 173.423706,263.883728 
	C173.173950,264.076172 171.831085,262.849976 170.997421,261.895905 
z"/>
<path fill="#EF3D42" opacity="1.000000" stroke="none" 
	d="
M171.513763,133.313446 
	C172.099930,137.148422 172.860733,140.766357 169.536316,143.558182 
	C165.756439,138.690613 166.529373,134.495834 171.513763,133.313446 
z"/>
<path fill="#EF3E43" opacity="1.000000" stroke="none" 
	d="
M142.223694,178.750000 
	C143.337799,176.119797 144.455490,175.424728 146.005447,177.990173 
	C147.733185,180.849869 147.214050,183.476562 143.122284,187.692841 
	C142.708908,184.214493 142.406281,181.667953 142.223694,178.750000 
z"/>
<path fill="#EF3C42" opacity="1.000000" stroke="none" 
	d="
M121.998657,187.246048 
	C122.651604,185.511063 123.288383,184.181519 124.101471,182.483841 
	C127.815048,187.575394 127.735168,189.448318 123.326981,194.572433 
	C122.778580,191.749496 122.380524,189.700500 121.998657,187.246048 
z"/>
<path fill="#EF3E43" opacity="1.000000" stroke="none" 
	d="
M130.828308,295.757629 
	C132.417770,294.961914 133.716049,294.412415 135.115234,293.820190 
	C136.079132,298.868530 133.615540,301.577911 127.551376,301.528442 
	C128.697540,299.407654 129.617325,297.705750 130.828308,295.757629 
z"/>
<path fill="#EF3D42" opacity="1.000000" stroke="none" 
	d="
M138.134460,281.386658 
	C139.856689,279.979126 141.324631,278.860687 143.076675,277.525818 
	C144.082932,282.998352 142.537323,285.362854 136.995163,286.879852 
	C137.328125,284.921936 137.604156,283.298859 138.134460,281.386658 
z"/>
<path fill="#EF3C42" opacity="1.000000" stroke="none" 
	d="
M195.709656,148.517838 
	C194.405914,151.283432 192.888809,150.993607 192.519211,148.701630 
	C192.036652,145.709183 192.401062,142.580170 193.201248,139.486603 
	C196.572540,141.947693 197.105148,144.855316 195.709656,148.517838 
z"/>
<path fill="#EF3F44" opacity="1.000000" stroke="none" 
	d="
M184.278839,233.272675 
	C186.644501,231.483368 188.438721,231.951782 187.822906,234.549530 
	C187.184067,237.244385 185.303802,239.644958 183.966461,242.174240 
	C183.183273,241.844955 182.400085,241.515686 181.616898,241.186401 
	C182.412033,238.639526 183.207169,236.092667 184.278839,233.272675 
z"/>
<path fill="#EF3E43" opacity="1.000000" stroke="none" 
	d="
M166.542145,206.975983 
	C167.845032,206.910263 169.733459,206.978134 169.792343,207.342041 
	C170.367844,210.898788 170.073837,214.220749 164.558182,216.142548 
	C165.237183,212.631912 165.757935,209.939423 166.542145,206.975983 
z"/>
<path fill="#EF3E43" opacity="1.000000" stroke="none" 
	d="
M180.005371,221.912430 
	C179.093857,224.315903 178.184555,226.309311 177.275253,228.302704 
	C176.541992,228.106339 175.808716,227.909988 175.075439,227.713623 
	C175.310303,225.305252 175.299988,222.833557 175.897705,220.518875 
	C176.145386,219.559723 177.694107,218.936523 178.651138,218.160538 
	C179.103287,219.274475 179.555450,220.388412 180.005371,221.912430 
z"/>
<path fill="#EF3D43" opacity="1.000000" stroke="none" 
	d="
M148.015656,135.778931 
	C148.571320,133.370712 149.138214,131.352005 149.705093,129.333298 
	C150.506866,129.460205 151.308624,129.587097 152.110382,129.713989 
	C151.955521,132.996628 151.800659,136.279266 151.645798,139.561920 
	C150.972717,139.641434 150.299637,139.720947 149.626572,139.800461 
	C149.093338,138.589783 148.560104,137.379105 148.015656,135.778931 
z"/>
<path fill="#EF3F44" opacity="1.000000" stroke="none" 
	d="
M136.999176,148.613373 
	C137.224609,146.252777 137.464478,144.292297 137.839005,141.231216 
	C142.007294,145.202347 141.491837,148.293091 138.943741,152.439987 
	C138.099457,150.941132 137.556534,149.977310 136.999176,148.613373 
z"/>
<path fill="#EF3B40" opacity="1.000000" stroke="none" 
	d="
M120.666870,131.490540 
	C119.703278,132.465820 118.886429,133.077591 118.069580,133.689362 
	C117.708458,132.858337 117.029716,132.019577 117.049675,131.197815 
	C117.097099,129.245270 117.475334,127.300774 117.719902,125.353027 
	C118.389664,125.300125 119.059425,125.247231 119.729187,125.194328 
	C120.090660,127.171898 120.452133,129.149475 120.666870,131.490540 
z"/>
<path fill="#EF3D42" opacity="1.000000" stroke="none" 
	d="
M138.967529,123.236740 
	C142.678986,123.549934 143.140854,126.226830 140.323700,130.810562 
	C137.508087,128.812424 137.554810,126.330727 138.967529,123.236740 
z"/>
<path fill="#EF3E43" opacity="1.000000" stroke="none" 
	d="
M192.265381,162.668579 
	C193.049316,161.676514 193.703156,161.046936 194.356995,160.417358 
	C194.886581,161.167450 195.873901,161.927658 195.857559,162.665665 
	C195.813400,164.661133 195.342468,166.647141 195.040833,168.636917 
	C194.358093,168.690094 193.675354,168.743286 192.992599,168.796478 
	C192.706833,166.874680 192.421051,164.952881 192.265381,162.668579 
z"/>
<path fill="#EF3B40" opacity="1.000000" stroke="none" 
	d="
M159.306931,132.359009 
	C159.715530,129.713470 160.279831,127.417595 160.844131,125.121719 
	C161.564453,125.264999 162.284775,125.408272 163.005112,125.551552 
	C162.777863,127.995430 162.580475,130.443939 162.203842,132.864578 
	C162.190140,132.952652 160.416214,132.766846 159.306931,132.359009 
z"/>
<path fill="#EF3D43" opacity="1.000000" stroke="none" 
	d="
M140.986298,220.721619 
	C140.314514,222.302994 139.652161,223.503586 138.989822,224.704178 
	C138.413208,224.576920 137.836578,224.449646 137.259964,224.322372 
	C137.443069,221.666550 137.626160,219.010727 137.809250,216.354919 
	C138.470886,216.303619 139.132523,216.252304 139.794144,216.201004 
	C140.194672,217.580948 140.595200,218.960892 140.986298,220.721619 
z"/>
<path fill="#EF3C41" opacity="1.000000" stroke="none" 
	d="
M132.965576,160.658112 
	C131.942581,160.912155 131.006500,160.813797 130.070419,160.715454 
	C130.333878,158.289749 130.597351,155.864044 130.860809,153.438339 
	C131.591370,153.455551 132.321930,153.472763 133.052490,153.489975 
	C133.052490,155.761887 133.052490,158.033813 132.965576,160.658112 
z"/>
<path fill="#EF3E43" opacity="1.000000" stroke="none" 
	d="
M143.078384,200.483109 
	C144.790405,197.154846 146.426132,197.790634 146.780106,200.594147 
	C147.024063,202.526276 145.849670,204.637482 145.309158,206.668640 
	C144.735977,206.588287 144.162796,206.507935 143.589615,206.427582 
	C143.401047,204.575317 143.212494,202.723038 143.078384,200.483109 
z"/>
<path fill="#EF3E43" opacity="1.000000" stroke="none" 
	d="
M120.014984,205.961197 
	C119.524673,207.553574 119.037437,208.751602 118.289375,210.590988 
	C114.819092,206.628601 115.962646,204.044296 119.176308,200.689758 
	C119.550766,202.859360 119.784409,204.213104 120.014984,205.961197 
z"/>
<path fill="#EF3E43" opacity="1.000000" stroke="none" 
	d="
M144.975555,158.792816 
	C145.424728,161.497681 145.562225,164.016953 145.699722,166.536224 
	C144.973846,166.540619 144.247986,166.545013 143.522110,166.549408 
	C141.407364,163.845963 141.296600,161.187531 144.975555,158.792816 
z"/>
<path fill="#EF3D42" opacity="1.000000" stroke="none" 
	d="
M190.230774,222.062347 
	C186.929169,220.564835 187.202393,218.065826 192.148697,214.659836 
	C191.599792,217.040894 191.050888,219.421936 190.230774,222.062347 
z"/>
<path fill="#EF3E43" opacity="1.000000" stroke="none" 
	d="
M133.914703,257.576202 
	C132.983719,258.954376 132.111832,259.950439 131.239929,260.946503 
	C130.686386,260.666138 130.132843,260.385773 129.579300,260.105408 
	C130.414749,257.551239 131.250183,254.997086 132.085617,252.442932 
	C132.648254,252.534515 133.210892,252.626099 133.773529,252.717682 
	C133.840271,254.209824 133.907028,255.701981 133.914703,257.576202 
z"/>
<path fill="#EF3D43" opacity="1.000000" stroke="none" 
	d="
M36.910461,185.429077 
	C36.734447,187.793015 36.502693,189.755020 36.182850,192.462784 
	C30.973019,189.195297 31.919004,185.325089 33.632118,180.717957 
	C34.706318,182.154358 35.780514,183.590759 36.910461,185.429077 
z"/>
<path fill="#EF3D42" opacity="1.000000" stroke="none" 
	d="
M58.860695,211.983368 
	C58.759789,209.556976 58.759789,207.497269 58.759789,205.437576 
	C59.324242,205.309006 59.888691,205.180420 60.453144,205.051849 
	C61.487797,206.756317 63.001919,208.353638 63.413895,210.197250 
	C63.780415,211.837433 62.925846,213.750504 62.610214,215.543121 
	C61.394005,214.478775 60.177803,213.414429 58.860695,211.983368 
z"/>
<path fill="#EF3E43" opacity="1.000000" stroke="none" 
	d="
M36.759216,147.263702 
	C36.067219,148.580750 35.496586,149.538513 34.886765,150.562042 
	C30.999516,146.597031 30.895826,143.292969 35.405041,138.468246 
	C36.000534,141.872894 36.440559,144.388657 36.759216,147.263702 
z"/>
<path fill="#EF3E43" opacity="1.000000" stroke="none" 
	d="
M69.741699,147.289886 
	C68.518822,150.164291 66.847534,150.438705 66.072708,147.806061 
	C65.246307,144.998169 65.394974,141.903305 65.012665,137.804810 
	C69.917137,140.456375 70.247658,143.534195 69.741699,147.289886 
z"/>
<path fill="#EF3D42" opacity="1.000000" stroke="none" 
	d="
M57.631931,261.317932 
	C57.817738,264.873840 56.296928,265.981049 54.153580,263.427795 
	C52.428844,261.373169 51.731216,258.456299 50.577862,255.922012 
	C51.405243,255.434341 52.232624,254.946671 53.060005,254.458984 
	C54.538704,256.630341 56.017399,258.801727 57.631931,261.317932 
z"/>
<path fill="#EF3D43" opacity="1.000000" stroke="none" 
	d="
M48.571198,224.072449 
	C48.404846,221.720093 48.404846,219.709808 48.404846,217.356934 
	C53.942715,220.417862 54.854603,223.396576 51.737373,228.146576 
	C50.655266,226.800323 49.696404,225.607422 48.571198,224.072449 
z"/>
<path fill="#EF3D42" opacity="1.000000" stroke="none" 
	d="
M45.711967,235.383224 
	C46.250088,237.475510 46.613697,239.232513 47.081543,241.493164 
	C41.475735,241.087952 41.290794,237.247345 40.410702,234.142914 
	C40.278030,233.674942 41.903458,232.182526 42.011826,232.252609 
	C43.265453,233.063110 44.383457,234.083359 45.711967,235.383224 
z"/>
<path fill="#EF3F44" opacity="1.000000" stroke="none" 
	d="
M70.072273,196.476685 
	C70.766045,194.843109 71.414497,193.589142 72.153206,192.160599 
	C76.089508,196.852798 76.069221,199.359146 71.661987,204.212250 
	C71.026039,201.351120 70.526497,199.103699 70.072273,196.476685 
z"/>
<path fill="#EF3E43" opacity="1.000000" stroke="none" 
	d="
M61.509510,226.058517 
	C65.870125,228.053589 66.217163,231.486313 62.382328,236.284698 
	C59.322639,233.100174 59.214916,229.875000 61.509510,226.058517 
z"/>
<path fill="#EF3E43" opacity="1.000000" stroke="none" 
	d="
M92.179474,295.774231 
	C96.383522,292.937531 98.912254,294.823944 100.308067,301.708923 
	C95.693108,302.531860 94.025902,299.222687 92.179474,295.774231 
z"/>
<path fill="#EF3E43" opacity="1.000000" stroke="none" 
	d="
M88.056396,262.715057 
	C89.109375,262.458160 90.837036,262.311859 91.005585,262.756531 
	C92.038605,265.481964 92.718620,268.341217 92.802361,271.426300 
	C87.312691,270.571503 88.036728,266.639221 88.056396,262.715057 
z"/>
<path fill="#EF3D43" opacity="1.000000" stroke="none" 
	d="
M91.051926,282.153687 
	C91.450371,283.826294 91.693466,285.152100 91.974312,286.683777 
	C85.909889,285.861633 84.614685,284.007843 85.851929,277.129272 
	C87.878265,279.008179 89.387421,280.407501 91.051926,282.153687 
z"/>
<path fill="#EF3D43" opacity="1.000000" stroke="none" 
	d="
M46.319504,157.394424 
	C44.553280,153.577240 44.808399,150.405701 47.827583,147.467773 
	C51.168232,150.536957 50.336853,154.041473 49.068783,157.487915 
	C48.940479,157.836624 47.382793,157.659409 46.319504,157.394424 
z"/>
<path fill="#EF3E43" opacity="1.000000" stroke="none" 
	d="
M45.907776,170.342407 
	C50.017483,173.360291 49.342499,176.888489 47.912811,181.439346 
	C43.683994,177.738464 42.551140,174.434479 45.907776,170.342407 
z"/>
<path fill="#EF3C41" opacity="1.000000" stroke="none" 
	d="
M79.753525,286.835876 
	C74.539406,285.315521 73.400154,283.130554 75.054367,277.831726 
	C79.027855,279.646240 81.195717,282.182953 79.753525,286.835876 
z"/>
<path fill="#EF3D42" opacity="1.000000" stroke="none" 
	d="
M97.976868,279.078766 
	C98.130501,277.612213 98.284157,276.549408 98.456795,275.355408 
	C103.322121,278.099884 104.158264,281.270782 100.587204,286.990143 
	C99.505310,283.878479 98.741096,281.680511 97.976868,279.078766 
z"/>
<path fill="#EF3E43" opacity="1.000000" stroke="none" 
	d="
M101.002129,135.687286 
	C100.462601,137.339844 99.934059,138.594879 99.306816,140.084290 
	C94.971016,135.677963 94.949387,133.547638 99.621956,128.405380 
	C100.187386,131.203506 100.600250,133.246643 101.002129,135.687286 
z"/>
<path fill="#EF3D43" opacity="1.000000" stroke="none" 
	d="
M99.824387,204.606750 
	C101.469322,208.337585 102.081985,211.730530 98.703682,214.614197 
	C94.795265,210.077835 95.088020,206.995758 99.824387,204.606750 
z"/>
<path fill="#EF3D43" opacity="1.000000" stroke="none" 
	d="
M49.949425,132.561218 
	C49.766804,135.225677 49.539627,137.491318 49.243706,140.442581 
	C44.149723,136.436417 44.028809,134.584900 47.921978,128.883911 
	C48.678295,130.134415 49.291580,131.148422 49.949425,132.561218 
z"/>
<path fill="#EF3E43" opacity="1.000000" stroke="none" 
	d="
M56.925873,195.480957 
	C55.724556,198.414307 53.992386,198.388870 53.157227,196.025299 
	C52.254734,193.471191 52.285736,190.587250 51.806820,187.098770 
	C56.980930,188.843414 57.215401,191.844101 56.925873,195.480957 
z"/>
<path fill="#EF3E43" opacity="1.000000" stroke="none" 
	d="
M74.084396,264.637665 
	C74.127426,262.998932 74.225533,261.745056 74.335724,260.336700 
	C79.920349,263.145752 80.507217,264.291870 78.982468,270.894592 
	C77.006180,268.498352 75.572830,266.760406 74.084396,264.637665 
z"/>
<path fill="#EF3D43" opacity="1.000000" stroke="none" 
	d="
M67.965584,249.435883 
	C68.986053,252.169296 69.749557,254.642090 70.757355,257.906097 
	C65.480652,256.766785 64.492981,253.535751 64.261391,250.386337 
	C64.081619,247.941513 65.492630,246.583191 67.965584,249.435883 
z"/>
<path fill="#EF3F44" opacity="1.000000" stroke="none" 
	d="
M55.384811,239.985855 
	C57.109127,243.122940 58.147312,245.949005 55.286209,248.926605 
	C51.402885,246.700043 51.806587,243.248245 52.331989,239.865448 
	C52.362892,239.666489 54.173183,239.743896 55.384811,239.985855 
z"/>
<path fill="#EF3F44" opacity="1.000000" stroke="none" 
	d="
M41.496628,199.266312 
	C46.175320,200.348923 46.742271,201.797028 45.329414,208.709030 
	C40.608551,207.039337 40.575340,203.476547 41.496628,199.266312 
z"/>
<path fill="#EF3F44" opacity="1.000000" stroke="none" 
	d="
M72.978455,216.047516 
	C73.131302,214.592728 73.284607,213.535156 73.504478,212.018372 
	C78.462479,214.609909 78.222115,218.407745 77.791840,222.272095 
	C77.202835,222.548889 76.613823,222.825684 76.024818,223.102478 
	C75.009514,220.883240 73.994209,218.663986 72.978455,216.047516 
z"/>
<path fill="#EF3D42" opacity="1.000000" stroke="none" 
	d="
M95.828796,193.928680 
	C95.200813,195.557907 94.626503,196.811066 94.052193,198.064240 
	C93.390610,198.037064 92.729027,198.009888 92.067436,197.982712 
	C91.708733,194.570343 91.350029,191.157990 90.991333,187.745621 
	C91.742775,187.563217 92.494217,187.380814 93.245651,187.198395 
	C94.124596,189.316483 95.003532,191.434555 95.828796,193.928680 
z"/>
<path fill="#EF3E43" opacity="1.000000" stroke="none" 
	d="
M67.685181,277.122162 
	C62.875248,276.217072 61.317322,273.228607 62.365421,268.216919 
	C66.553589,269.858887 68.609886,272.401550 67.685181,277.122162 
z"/>
<path fill="#EF3D42" opacity="1.000000" stroke="none" 
	d="
M89.198586,151.324951 
	C86.377296,148.214676 86.459694,145.358246 89.175003,142.545868 
	C93.082359,145.634766 93.143669,147.908981 89.198586,151.324951 
z"/>
<path fill="#EF3E43" opacity="1.000000" stroke="none" 
	d="
M78.908966,139.222794 
	C74.182617,136.658386 76.026474,133.176300 77.225143,129.180908 
	C81.199081,132.237778 80.351280,135.614349 78.908966,139.222794 
z"/>
<path fill="#EF3D42" opacity="1.000000" stroke="none" 
	d="
M91.104515,119.453400 
	C92.929413,123.068153 91.049454,125.347862 88.084747,128.387177 
	C86.282875,123.899048 87.577026,121.368332 91.104515,119.453400 
z"/>
<path fill="#EF3B40" opacity="1.000000" stroke="none" 
	d="
M83.085098,204.426208 
	C83.582993,203.182663 84.032417,202.320023 84.481842,201.457382 
	C84.983917,201.428604 85.485985,201.399811 85.988060,201.371033 
	C86.330864,204.107178 86.673676,206.843338 87.016479,209.579483 
	C86.258690,209.766998 85.500893,209.954498 84.743103,210.142014 
	C84.174278,208.363708 83.605446,206.585419 83.085098,204.426208 
z"/>
<path fill="#EF3D42" opacity="1.000000" stroke="none" 
	d="
M59.020378,152.325836 
	C63.224964,154.483826 62.432133,157.305145 60.402016,160.624390 
	C57.191555,158.207581 57.600834,155.403824 59.020378,152.325836 
z"/>
<path fill="#EF3D42" opacity="1.000000" stroke="none" 
	d="
M40.629608,218.353973 
	C40.528286,219.899002 40.285828,221.112335 40.043369,222.325653 
	C39.546806,222.439316 39.050243,222.552979 38.553680,222.666641 
	C37.521210,220.146149 36.488739,217.625641 35.456268,215.105133 
	C36.023525,214.755264 36.590782,214.405380 37.158039,214.055511 
	C38.268185,215.377762 39.378326,216.700012 40.629608,218.353973 
z"/>
<path fill="#EF3C41" opacity="1.000000" stroke="none" 
	d="
M74.680603,238.506653 
	C74.469879,240.481674 74.119766,242.096710 73.769653,243.711746 
	C73.146637,243.724289 72.523621,243.736832 71.900597,243.749390 
	C71.528481,241.090134 71.156357,238.430893 70.784233,235.771637 
	C71.268631,235.561371 71.753021,235.351105 72.237411,235.140839 
	C73.005348,236.142776 73.773277,237.144714 74.680603,238.506653 
z"/>
<path fill="#EF3C41" opacity="1.000000" stroke="none" 
	d="
M34.292553,168.308807 
	C31.776869,165.670944 31.153193,163.091583 34.154327,159.927048 
	C36.702530,162.799744 36.985497,165.457657 34.292553,168.308807 
z"/>
<path fill="#EF3F44" opacity="1.000000" stroke="none" 
	d="
M59.227329,129.802795 
	C60.507565,129.949799 62.434532,130.210693 62.659592,130.973633 
	C63.162468,132.678345 62.816811,134.633362 62.816811,136.486420 
	C62.193203,136.617645 61.569595,136.748871 60.945988,136.880112 
	C60.331230,134.634903 59.716473,132.389694 59.227329,129.802795 
z"/>
<path fill="#EE3A3F" opacity="1.000000" stroke="none" 
	d="
M80.963104,250.198059 
	C81.951782,251.907623 82.579056,253.547302 83.206337,255.186966 
	C82.704857,255.335342 82.203384,255.483734 81.701904,255.632111 
	C80.341621,254.078613 77.461952,252.955078 80.963104,250.198059 
z"/>
</svg>